<?xml version="1.0" encoding="UTF-8"?>
<svg id="a" data-name="Layer 1" xmlns="http://www.w3.org/2000/svg" viewBox="0 0 393.47 105.55">
  <defs>
    <style>
      .b {
        fill: #35a0c0;
      }

      .b, .c, .d {
        fill-rule: evenodd;
      }

      .c {
        fill: #365ac2;
      }

      .d {
        fill: #4d4d4d;
      }
    </style>
  </defs>
  <g>
    <path class="d" d="m161.32,28.96h8.21s0,26.25,0,26.25l28.75-26.24,11.73.05-21.33,19.78,21.51,29.81h-9.81s-17.82-24.19-17.82-24.19l-12.99,11.94v12.19h-8.25l.03-49.61h0Zm223.49,49.66V29s8.66-.01,8.66-.01l-.03,49.69-8.64-.06h0Zm-68.14-.05l-8.2.05-.11-49.3,24.72,19.16,24.98-19.22.03,49.33-8.58.03-.16-32.04-16.09,12.53-16.61-12.72v32.17h.01Zm-73.65.04h-9.21s25.07-49.09,25.07-49.09l24.91,49.1h-9.13s-15.89-30.85-15.89-30.85l-15.75,30.85Z"/>
    <path class="d" d="m392.84,103.48c0-1.22-.39-1.3-.89-1.3h-6.85c-.13,0-.24-.11-.24-.24v-3.09c0-.13.11-.24.24-.24h5.61c1.07.03,1.06-.13,1.08-1.27,0-1.16-.12-1.11-1.13-1.13h-5.56c-.13,0-.24-.11-.24-.24v-2.98c0-.13.11-.24.24-.24h6.74c.71.06.87-.26.89-1.28.02-1.03-.06-1.09-.84-1.12h-8.02c-1.78,0-1.75-.07-1.75,1.41v11.12c0,1.78-.07,1.7,1.73,1.7h7.85c.77.01,1.09-.07,1.13-1.09Z"/>
    <path class="d" d="m367.43,101.94c-.6-.68-.76-.63-1.65-.15-.92.64-1.86.98-3.13.98-2.85,0-4.75-2.38-4.75-5.12v-.04c0-2.72,1.93-5.07,4.75-5.07,1.21,0,2.23.39,3.16,1.04.63.41.66.57,1.6-.51.75-.83.75-.89-.07-1.57-1.37-.97-2.86-1.33-4.66-1.33-4.29,0-7.57,3.2-7.57,7.5v.04c0,4.22,3.21,7.46,7.44,7.46,1.93,0,3.4-.44,4.77-1.5.84-.68.97-.76.12-1.72Z"/>
    <path class="d" d="m338.59,95.18c0,1.57-1.26,2.32-2.72,2.32h-3.28c-.13,0-.24-.11-.24-.24v-4.22c0-.13.11-.24.24-.24h3.21c1.52,0,2.78.67,2.78,2.34v.04h0Zm2.51,8.65l-2.82-4.13c-.04-.06-.05-.14-.03-.21.02-.07.07-.13.15-.15,1.95-.72,2.99-2.25,2.99-4.33v-.04c0-3.18-2.33-4.61-5.3-4.61h-4.91c-1.63,0-1.57-.24-1.57,1.41v11.43c0,1.41,0,1.37,1.28,1.37,1.42,0,1.51.07,1.47-1.12v-3.35c0-.13.11-.24.24-.24h2.54c.08,0,.15.04.2.11l2.56,3.83c.55.86.72.77,1.79.77h.69c1.07,0,1.19-.1.73-.75Z"/>
    <path class="d" d="m312.47,97.51c0,2.67-1.93,4.82-4.65,4.82s-4.69-2.19-4.69-4.86v-.04c0-2.67,1.93-4.82,4.65-4.82s4.69,2.19,4.69,4.86v.04h0Zm2.9-.04v-.04c0-4.24-3.35-7.32-7.55-7.32s-7.59,3.11-7.59,7.36v.04c0,4.24,3.35,7.32,7.55,7.32s7.59-3.11,7.59-7.36Z"/>
    <path class="d" d="m286.83,91.58c0-1.42.14-1.22-1.26-1.22h-7.58c-1.91,0-1.87-.18-1.87,1.67v11.16c-.01,1.45-.09,1.38,1.59,1.38,1.46,0,1.15-.15,1.16-1.35v-4.1c0-.13.11-.24.24-.24h5.32c1.62,0,1.44.07,1.45-1.23,0-1.32.13-1.23-1.37-1.23h-5.4c-.13,0-.24-.11-.24-.24v-3.13c0-.13.11-.24.24-.24h6.66c1.19,0,1.06.05,1.06-1.24Z"/>
    <path class="d" d="m262.29,103.82l-5.41-7.32c-.07-.09-.06-.22.02-.31l4.55-4.75c.93-.92.68-1.04-.78-1.08-1.2,0-1.28-.06-1.98.6l-5.33,5.74c-.07.07-.17.1-.26.06-.09-.04-.15-.12-.15-.22v-5.02c0-1.23.13-1.17-1.46-1.17s-1.21.06-1.29,1.26v11.68c-.04,1.38-.17,1.28,1.55,1.28,1.4,0,1.21.05,1.21-1.12v-3.13c0-.06.02-.12.07-.17l1.7-1.76c.05-.05.12-.08.19-.07.07,0,.13.04.18.1l3.82,5.24c.79,1.03.77.92,2.38.92,1.38,0,1.59.07,1.02-.76Z"/>
    <path class="d" d="m207.14,97.51c0,2.72-1.96,4.91-4.74,4.91s-4.78-2.23-4.78-4.95v-.04c0-2.72,1.96-4.91,4.74-4.91s4.78,2.23,4.78,4.95v.04h0Zm2.96-.04v-.04c0-4.32-3.42-7.46-7.69-7.46s-7.73,3.17-7.73,7.5v.04c0,4.32,3.42,7.46,7.69,7.46s7.74-3.17,7.74-7.5Z"/>
    <path class="d" d="m181.11,90.58c-1.48,0-1.52.01-1.82,1.01l-2.57,8.78c-.03.1-.12.17-.22.17-.1,0-.19-.06-.22-.16l-2.73-8.65c-.43-1.32-.16-1.18-1.6-1.18-1.21,0-1.05-.14-1.45,1.11l-2.75,8.72c-.03.1-.12.17-.22.16-.1,0-.19-.07-.22-.17l-2.58-8.82c-.33-1.11-.24-.96-1.59-.96-1.66,0-1.48-.09-1.05,1.45l3.74,11.53c.47,1.44.27,1.34,1.51,1.34,1.5,0,1.21.22,1.72-1.32l2.69-8.14c.03-.1.12-.16.22-.16s.18.06.22.16l2.77,8.39c.39,1.18.22,1.07,1.63,1.06,1.16,0,1,.14,1.36-.86l3.99-12.31c.41-1.24.6-1.16-.83-1.15Z"/>
    <path class="d" d="m233.15,95.18c0,1.57-1.26,2.32-2.72,2.32h-3.28c-.13,0-.24-.11-.24-.24v-4.22c0-.13.11-.24.24-.24h3.21c1.52,0,2.78.67,2.78,2.34v.04h0Zm2.51,8.65l-2.82-4.13c-.04-.06-.05-.14-.03-.21.02-.07.07-.13.14-.15,1.95-.72,2.99-2.25,2.99-4.33v-.04c0-3.18-2.33-4.61-5.3-4.61h-4.91c-1.63,0-1.57-.24-1.57,1.41v11.43c0,1.41,0,1.37,1.29,1.37,1.42,0,1.51.07,1.47-1.12v-3.35c0-.13.11-.24.24-.24h2.54c.08,0,.15.04.2.11l2.56,3.83c.55.86.72.77,1.79.77h.69c1.07,0,1.19-.1.73-.75Z"/>
  </g>
  <g>
    <path class="c" d="m13.29,70.74h7.66c.02-10.03-.77-8.93,7.19-17l31.2-31.61c5.02-5.09,5.59-7.01,13.26-7.11,4.43-.06,8.85-.05,13.27-.04,12.7.05,10.68,2.28,3.32,9.88-10.12,10.46-21.25,21.7-31.62,31.92-3.72,3.67-6.08,5.55-9.82,9.17-6.92,6.72-6.39,11.04-.74,18.26l9.18,11.72c7.8,9.33,6.57,9.76,16.57,9.48,1.4-.04,2.93-.04,4.36-.03,8.04.05,12.54.25,20.58.12,13.38-.21,13.23-8.88,7.57-15.44l-16.02-20.3-2.79-3.67c-2,1.86-4.01,3.72-6.01,5.59,1.1,1.41,2.2,2.83,3.28,4.25l10.22,12.82c1.03,1.65,5.88,6.08,5.22,7.99-.85,2.42-8.37,1.63-10.33,1.6-4.21-.04-8.43-.1-12.65-.1-8.73,0-7.18.21-13.59-7.85l-4.25-5.35c-8.44-10.96-9.64-9.34.86-19.75,12.56-12.45,24.72-25.29,37.18-37.84,14.24-14.2,10.76-18.51-4.2-18.59-6.23-.15-12.46,0-18.69,0-12.94,0-11.31-.78-20.28,8.53L20.38,51.45c-8.85,8.37-7.29,11.21-7.1,19.29Z"/>
    <path class="b" d="m26.65,3.74c5.01,5.58,3.44,14.86-3.1,21.05-6.54,6.19-15.75,6.56-20.58,1.37C-1.85,20.97-.73,11.35,5.81,5.16,12.35-1.03,21.64-1.84,26.65,3.74Z"/>
  </g>
</svg>